<?xml version="1.0" encoding="UTF-8" standalone="no"?>
<!-- Creator: CorelDRAW X7 -->

<svg
   xmlns:dc="http://purl.org/dc/elements/1.1/"
   xmlns:cc="http://creativecommons.org/ns#"
   xmlns:rdf="http://www.w3.org/1999/02/22-rdf-syntax-ns#"
   xmlns:svg="http://www.w3.org/2000/svg"
   xmlns="http://www.w3.org/2000/svg"
   xmlns:sodipodi="http://sodipodi.sourceforge.net/DTD/sodipodi-0.dtd"
   xmlns:inkscape="http://www.inkscape.org/namespaces/inkscape"
   xml:space="preserve"
   width="273px"
   height="274px"
   version="1.1"
   style="shape-rendering:geometricPrecision; text-rendering:geometricPrecision; image-rendering:optimizeQuality; fill-rule:evenodd; clip-rule:evenodd"
   viewBox="0 0 273 274"
   id="svg2"
   inkscape:version="0.91 r13725"
   sodipodi:docname="Windows_logo_–_2012_(dark_blue).svg"><metadata
   id="metadata17"><rdf:RDF><cc:Work
       rdf:about=""><dc:format>image/svg+xml</dc:format><dc:type
         rdf:resource="http://purl.org/dc/dcmitype/StillImage" /></cc:Work></rdf:RDF></metadata><sodipodi:namedview
   pagecolor="#ffffff"
   bordercolor="#666666"
   borderopacity="1"
   objecttolerance="10"
   gridtolerance="10"
   guidetolerance="10"
   inkscape:pageopacity="0"
   inkscape:pageshadow="2"
   inkscape:window-width="640"
   inkscape:window-height="480"
   id="namedview15"
   showgrid="false"
   inkscape:zoom="0.86131387"
   inkscape:cx="116.1822"
   inkscape:cy="135.83898"
   inkscape:current-layer="svg2" />
 <defs
   id="defs4">
  <style
   type="text/css"
   id="style6">
   <![CDATA[
    .fil0 {fill:#0078D6}
   ]]>
  </style>
 
  
  
 </defs>
 <g
   id="_26257872464">
   <path
   style="fill:#001589"
   inkscape:connector-curvature="0"
   d="M 125,22 C 174,14 224,7 273,0 l 0,2 0,128 c -49,0 -99,1 -148,1 0,-36 0,-73 0,-109 l 0,0 0,0 z"
   class="fil0"
   id="path5" />
   <path
   style="fill:#001589"
   inkscape:connector-curvature="0"
   d="m 0,39 c 37,-6 74,-11 112,-15 0,36 0,71 0,107 -38,0 -75,1 -112,1 l 0,-93 0,0 0,0 z"
   class="fil0"
   id="path7" />
   <path
   style="fill:#001589"
   inkscape:connector-curvature="0"
   d="m 0,143 c 37,0 74,1 112,0 0,36 0,72 0,108 C 74,246 37,241 0,236 l 0,-93 z"
   class="fil0"
   id="path29" />
   <path
   style="fill:#001589"
   inkscape:connector-curvature="0"
   d="m 125,144 c 49,0 99,0 148,0 l 0,124 0,6 c -49,-8 -99,-14 -148,-21 0,-36 0,-72 0,-109 l 0,0 z"
   class="fil0"
   id="path31" />
  </g>
</svg>